<?xml version="1.0" encoding="UTF-8"?>
<svg width="167px" height="89px" viewBox="0 0 167 89" version="1.1" xmlns="http://www.w3.org/2000/svg" xmlns:xlink="http://www.w3.org/1999/xlink">
    <!-- Generator: Sketch 61.2 (89653) - https://sketch.com -->
    <title>Assets/Logo</title>
    <desc>Created with Sketch.</desc>
    <defs>
        <polygon id="path-1" points="0 87.9883736 167.654819 87.9883736 167.654819 0.0534215126 0 0.0534215126"></polygon>
    </defs>
    <g id="Symbols" stroke="none" stroke-width="1" fill="none" fill-rule="evenodd">
        <g id="components/header-(option2)" transform="translate(-50.000000, -25.000000)">
            <g id="Assets/Logo-(onDark)" transform="translate(50.000000, 25.000000)">
                <g id="Group-35">
                    <polygon id="Fill-1" fill="#FEFEFE" points="124 0 124 32 131.087488 24.9106164 131.087488 19.4663175 136.531523 19.4663175 140 16.000776"></polygon>
                    <polygon id="Fill-2" fill="#FEFEFE" points="124 89 139 73.5007718 136.432029 70.84579 130.822528 70.84579 130.822528 65.0480506 124 58"></polygon>
                    <polygon id="Fill-3" fill="#FEFEFE" points="131 39 141.518641 39 150 30.5179411 150 20 136.499093 20 131 25.497979"></polygon>
                    <polygon id="Fill-4" fill="#BDBFC1" points="131 25 136 20 131 20"></polygon>
                    <polygon id="Fill-5" fill="#FEFEFE" points="148.960956 32.1018809 148.960956 40.5846395 140.73334 40.5846395 135 46.4984326 140.534223 52.2068966 148.960956 52.2068966 148.960956 60.8965517 151.00076 63 167 46.4984326 151.00076 30"></polygon>
                    <polygon id="Fill-6" fill="#BDBFC1" points="149 38 149 30 141 38"></polygon>
                    <polygon id="Fill-7" fill="#FEFEFE" points="131 52 131 65.1133383 136.886176 71 150 71 150 60.6873711 141.311778 52"></polygon>
                    <polygon id="Fill-8" fill="#BDBFC1" points="131 71 137 71 131 65"></polygon>
                    <polygon id="Fill-9" fill="#BDBFC1" points="141 52 150 61 150 52"></polygon>
                    <path d="M63.9889328,20.5536177 L61.1857708,26.9271283 L66.7905138,26.9271283 L63.9889328,20.5536177 Z M63.9889328,16 L72,34 L69.7264822,34 L67.4418972,28.6895182 L60.5596838,28.6895182 L58.2735178,34 L56,34 L63.9889328,16 Z" id="Fill-10" fill="#FEFEFE"></path>
                    <g id="Group-34" transform="translate(0.000000, 1.000000)">
                        <path d="M75.4283189,18.5460637 L75.4283189,24.4051466 L77.0269421,24.4051466 C78.6618977,24.4051466 79.7550274,24.194603 80.3094905,23.7766583 C80.8623741,23.3571423 81.1372362,22.6265245 81.1372362,21.5832338 C81.1372362,20.4582396 80.8544757,19.6710579 80.2842159,19.2201175 C79.7155357,18.7707483 78.6287246,18.5460637 77.0269421,18.5460637 L75.4283189,18.5460637 Z M73.3858092,34.2912689 L73.3858092,16.7878674 L77.5197983,16.7878674 C78.69823,16.7878674 79.562308,16.8538587 80.1104525,16.9858413 C80.6601767,17.1162526 81.1419752,17.3425084 81.5590073,17.6614663 C82.0802975,18.0668413 82.4846923,18.612055 82.7721917,19.2923937 C83.0612708,19.9743035 83.2066002,20.7300608 83.2066002,21.5596655 C83.2066002,22.992619 82.803785,24.0830464 81.9981548,24.8293763 C81.1925245,25.574135 80.0109334,25.9449432 78.4581206,25.9449432 L78.0853191,25.9449432 L84.8052234,34.2912689 L82.1482232,34.2912689 L75.7284557,25.9449432 L75.4283189,25.9449432 L75.4283189,34.2912689 L73.3858092,34.2912689 Z" id="Fill-11" fill="#FEFEFE"></path>
                        <path d="M92.1258751,20.6980079 L89.3251251,27.1415851 L94.9250454,27.1415851 L92.1258751,20.6980079 Z M92.1258751,16.0943305 L100.130049,34.2922116 L97.8584873,34.2922116 L95.5758682,28.9233496 L88.6995769,28.9233496 L86.4153782,34.2922116 L84.1438167,34.2922116 L92.1258751,16.0943305 Z" id="Fill-13" fill="#FEFEFE"></path>
                        <path d="M103.990282,26.0907525 L103.990282,32.4746232 L105.6126,32.4746232 C106.726265,32.4746232 107.530316,32.4306291 108.023172,32.3442119 C108.514448,32.2562235 108.909365,32.1038151 109.206343,31.8885578 C109.568086,31.63402 109.852426,31.2789241 110.060943,30.8248412 C110.269459,30.3707584 110.372137,29.8679677 110.372137,29.3180403 C110.372137,28.6816958 110.248923,28.1270549 110.000915,27.6572598 C109.751328,27.1858935 109.391164,26.819799 108.918843,26.5558339 C108.637662,26.3877133 108.313831,26.2698717 107.944189,26.1975955 C107.577706,26.1253194 107.002707,26.0907525 106.225511,26.0907525 L105.6126,26.0907525 L103.990282,26.0907525 Z M103.990282,18.5944573 L103.990282,24.4535403 L105.6126,24.4535403 C107.103806,24.4535403 108.152705,24.2367118 108.762456,23.8061972 C109.370628,23.3756827 109.675504,22.6513498 109.675504,21.6300562 C109.675504,20.5066332 109.394323,19.7194515 108.828802,19.2685111 C108.263281,18.8191419 107.190687,18.5944573 105.6126,18.5944573 L103.990282,18.5944573 Z M101.946192,34.2925259 L101.946192,16.7875532 L105.6126,16.7875532 C106.903188,16.7875532 107.854147,16.8551157 108.467058,16.985527 C109.081549,17.1175096 109.609158,17.3437654 110.048305,17.6611521 C110.609087,18.0759544 111.045075,18.6085983 111.35311,19.2575125 C111.659566,19.9064268 111.815953,20.6181899 111.815953,21.3912306 C111.815953,22.3166798 111.59164,23.0881492 111.147754,23.7103527 C110.703867,24.3325562 110.056204,24.7677844 109.206343,25.0128949 C110.248923,25.1747307 111.07193,25.6382409 111.676942,26.4081391 C112.281955,27.174895 112.583671,28.1474807 112.583671,29.3180403 C112.583671,30.0188049 112.455718,30.6897162 112.199812,31.3276319 C111.943906,31.9655477 111.586901,32.5107613 111.131957,32.9648442 C110.632782,33.4519227 110.019871,33.7944488 109.290065,33.9924227 C108.561838,34.193539 107.336017,34.2925259 105.6126,34.2925259 L101.946192,34.2925259 Z" id="Fill-15" fill="#FEFEFE"></path>
                        <path d="M7.98237429,41.8566978 L5.18162434,48.300275 L10.7815446,48.300275 L7.98237429,41.8566978 Z M7.98237429,37.2530204 L15.986548,55.4509015 L13.7149866,55.4509015 L11.4323674,50.0820395 L4.55607613,50.0820395 L2.27187736,55.4509015 L0.00031593344,55.4509015 L7.98237429,37.2530204 Z" id="Fill-17" fill="#FEFEFE"></path>
                        <path d="M19.9178657,53.4904892 L21.2526845,53.4904892 C23.4168286,53.4904892 24.9143531,53.3962159 25.7468377,53.2092406 C26.5824817,53.0222653 27.2743759,52.7017362 27.8272594,52.2460822 C28.5491673,51.6490182 29.0988915,50.8759775 29.4748523,49.9332449 C29.8508131,48.9889411 30.0387935,47.9063699 30.0387935,46.6871024 C30.0387935,45.4584076 29.8523928,44.3821213 29.481171,43.4519585 C29.1067898,42.5233669 28.5570656,41.756611 27.8272594,41.1501198 C27.2743759,40.6881808 26.571424,40.3597956 25.7184037,40.1649642 C24.8638037,39.9701328 23.3757572,39.8711459 21.2526845,39.8711459 L19.9178657,39.8711459 L19.9178657,53.4904892 Z M17.8026914,55.4513729 L17.8026914,37.9464002 L21.1800198,37.9464002 C23.680633,37.9464002 25.4403823,38.0720979 26.4640066,38.3234933 C27.4844716,38.5733174 28.3785633,38.9944046 29.1494408,39.5836125 C30.1588482,40.3582244 30.9249868,41.3465224 31.446277,42.5500776 C31.9659875,43.7536329 32.2266326,45.141021 32.2266326,46.7106707 C32.2266326,48.2724644 31.9675671,49.6551388 31.451016,50.8539804 C30.9344648,52.052822 30.1667465,53.0395487 29.1494408,53.8125895 C28.3785633,54.4033685 27.5050073,54.8228845 26.5224543,55.0742799 C25.5430606,55.324104 24.0123631,55.4513729 21.9366804,55.4513729 L21.1800198,55.4513729 L17.8026914,55.4513729 Z" id="Fill-19" fill="#FEFEFE"></path>
                        <polygon id="Fill-21" fill="#FEFEFE" points="40.2451812 56.1318687 32.803369 37.9465573 35.0765101 37.9465573 40.2451812 51.3380736 45.3901573 37.9465573 47.6490814 37.9465573"></polygon>
                        <mask id="mask-2" fill="white">
                            <use xlink:href="#path-1"></use>
                        </mask>
                        <g id="Clip-24"></g>
                        <polygon id="Fill-23" fill="#FEFEFE" mask="url(#mask-2)" points="49.5241463 55.45153 51.6156257 55.45153 51.6156257 37.9465573 49.5241463 37.9465573"></polygon>
                        <path d="M62.2788532,45.7294432 C63.4256916,46.2165217 64.2881899,46.8622936 64.8695074,47.6667587 C65.4508249,48.472795 65.739904,49.4249549 65.739904,50.5248096 C65.739904,52.1353111 65.2249325,53.4315684 64.1965692,54.4151527 C63.1666262,55.4003082 61.8017937,55.8936716 60.1036515,55.8936716 C58.7167037,55.8936716 57.5556483,55.5417181 56.617326,54.8346687 C55.6790036,54.1291905 55.0455571,53.1267515 54.718566,51.828923 L56.617326,50.8940465 C56.873232,51.9561919 57.2965829,52.7590858 57.8857987,53.3042995 C58.4734349,53.8510844 59.2142988,54.1229056 60.1036515,54.1229056 C61.1525505,54.1229056 62.0024114,53.8228024 62.6516547,53.2210248 C63.3008979,52.6192471 63.6247297,51.8352079 63.6247297,50.8704782 C63.6247297,50.0911526 63.3988372,49.4108139 62.9454728,48.8326046 C62.4936879,48.2543953 61.809692,47.7657456 60.8966444,47.3682267 L58.757775,46.460061 C57.585662,45.9729825 56.716845,45.3476365 56.1418461,44.5840232 C55.5684269,43.8172673 55.2825072,42.8996743 55.2825072,41.831244 C55.2825072,40.5899795 55.7469293,39.5608298 56.6773533,38.7469373 C57.6061976,37.9361873 58.7925277,37.5276698 60.2347638,37.5276698 C61.2931409,37.5276698 62.2077682,37.7507832 62.9818051,38.19701 C63.755842,38.6448079 64.3576952,39.3015783 64.790524,40.1704635 L63.0592088,41.2703182 C62.6674513,40.5931219 62.2267242,40.08876 61.738607,39.7572324 C61.2489102,39.427276 60.6960267,39.2622978 60.0783768,39.2622978 C59.2932822,39.2622978 58.6503576,39.5011234 58.1511828,39.9787745 C57.647269,40.4564257 57.3976816,41.0676307 57.3976816,41.8076757 C57.3976816,42.4298792 57.590401,42.9672368 57.9758398,43.4228909 C58.3612786,43.8769737 58.9568131,44.2792063 59.7656027,44.6311598 L62.2788532,45.7294432 Z" id="Fill-25" fill="#FEFEFE" mask="url(#mask-2)"></path>
                        <path d="M77.1297784,53.9554134 C78.0917958,53.9554134 79.0080027,53.774723 79.8783994,53.411771 C80.748796,53.0488189 81.5338906,52.5208887 82.2305238,51.8279803 C82.9208384,51.1413567 83.4468676,50.3651736 83.8086114,49.4962884 C84.1687755,48.6274032 84.3488575,47.7082389 84.3488575,46.7340819 C84.3488575,45.75364 84.1656161,44.821906 83.8022927,43.9373086 C83.4358099,43.0527112 82.9129401,42.2702432 82.2305238,41.5930469 C81.5417889,40.9079946 80.7614333,40.3863493 79.8910367,40.0265397 C79.0206401,39.6683013 78.0996941,39.4891821 77.1297784,39.4891821 C76.1519644,39.4891821 75.2246998,39.6683013 74.3511438,40.0265397 C73.4760082,40.3863493 72.7035509,40.9079946 72.0290331,41.5930469 C71.3402982,42.2859554 70.814269,43.0715659 70.4525252,43.9498784 C70.0923611,44.8250485 69.912279,45.75364 69.912279,46.7340819 C69.912279,47.7082389 70.0907814,48.6242607 70.4477862,49.4837186 C70.804791,50.3463189 71.3308202,51.1256445 72.0290331,51.8279803 C72.7351443,52.5287448 73.5186592,53.0598175 74.3827372,53.4180559 C75.2436558,53.7762943 76.1598628,53.9554134 77.1297784,53.9554134 M86.5366966,46.7340819 C86.5366966,47.986345 86.3044855,49.166332 85.8384837,50.2740427 C85.3740615,51.3801823 84.6963843,52.3669091 83.8070317,53.2263669 C82.9160994,54.087396 81.892475,54.7520225 80.7314196,55.2171039 C79.5735236,55.6853277 78.3729765,55.9178684 77.1297784,55.9178684 C75.88816,55.9178684 74.6907723,55.6853277 73.5407746,55.2171039 C72.3891972,54.7520225 71.3703118,54.087396 70.4793795,53.2263669 C69.5805489,52.3574817 68.896553,51.370755 68.4273918,50.261473 C67.9582307,49.1537622 67.7244399,47.9784889 67.7244399,46.7340819 C67.7244399,45.48339 67.9582307,44.3018319 68.4273918,43.1878362 C68.896553,42.076983 69.5805489,41.0871138 70.4793795,40.2182286 C71.3608338,39.3650556 72.3797192,38.7082853 73.5344559,38.2447751 C74.6876129,37.7828361 75.88816,37.5518666 77.1297784,37.5518666 C78.3808749,37.5518666 79.5861609,37.7828361 80.7456367,38.2447751 C81.9035327,38.7082853 82.9239977,39.3650556 83.8070317,40.2182286 C84.6963843,41.0792577 85.3740615,42.0659845 85.8384837,43.1784089 C86.3044855,44.2892621 86.5366966,45.4755339 86.5366966,46.7340819" id="Fill-26" fill="#FEFEFE" mask="url(#mask-2)"></path>
                        <path d="M91.9947627,39.7045965 L91.9947627,45.5636794 L93.5933859,45.5636794 C95.2267618,45.5636794 96.3214712,45.3531358 96.8743547,44.935191 C97.4272382,44.5156751 97.70368,43.7850573 97.70368,42.7417666 C97.70368,41.6167724 97.4209195,40.8295907 96.8506597,40.3786503 C96.2819795,39.9292811 95.1951685,39.7045965 93.5933859,39.7045965 L91.9947627,39.7045965 Z M89.9506734,55.4498017 L89.9506734,37.9464002 L94.0862421,37.9464002 C95.2630941,37.9464002 96.1271721,38.0123915 96.6768963,38.1443741 C97.2250408,38.2747854 97.7068393,38.5010412 98.1238714,38.8199991 C98.6451616,39.2253741 99.0511361,39.7705878 99.3370558,40.4509264 C99.6277146,41.1328363 99.7714643,41.8885936 99.7714643,42.7181983 C99.7714643,44.1511518 99.3686492,45.2415791 98.5630189,45.9879091 C97.7573886,46.7326678 96.5773773,47.103476 95.0229847,47.103476 L94.6517629,47.103476 L101.370088,55.4498017 L98.714667,55.4498017 L92.2933198,47.103476 L91.9947627,47.103476 L91.9947627,55.4498017 L89.9506734,55.4498017 Z" id="Fill-27" fill="#FEFEFE" mask="url(#mask-2)"></path>
                        <path d="M109.531438,45.7294432 C110.678276,46.2165217 111.540775,46.8622936 112.123672,47.6667587 C112.70341,48.472795 112.994069,49.4249549 112.994069,50.5248096 C112.994069,52.1353111 112.479097,53.4315684 111.449154,54.4151527 C110.419211,55.4003082 109.054379,55.8936716 107.356236,55.8936716 C105.969289,55.8936716 104.808233,55.5417181 103.869911,54.8346687 C102.931589,54.1291905 102.299722,53.1267515 101.971151,51.828923 L103.869911,50.8940465 C104.127397,51.9561919 104.549168,52.7590858 105.138384,53.3042995 C105.727599,53.8510844 106.468463,54.1229056 107.356236,54.1229056 C108.406715,54.1229056 109.254996,53.8228024 109.90424,53.2210248 C110.553483,52.6192471 110.878894,51.8352079 110.878894,50.8704782 C110.878894,50.0911526 110.651422,49.4108139 110.199637,48.8326046 C109.746273,48.2543953 109.063857,47.7657456 108.149229,47.3682267 L106.01036,46.460061 C104.838247,45.9729825 103.96943,45.3476365 103.396011,44.5840232 C102.822592,43.8172673 102.535092,42.8996743 102.535092,41.831244 C102.535092,40.5899795 103.001094,39.5608298 103.929938,38.7469373 C104.860362,37.9361873 106.046692,37.5276698 107.488928,37.5276698 C108.547305,37.5276698 109.461933,37.7507832 110.23439,38.19701 C111.010007,38.6448079 111.61186,39.3015783 112.044689,40.1704635 L110.313373,41.2703182 C109.920036,40.5931219 109.479309,40.08876 108.991192,39.7572324 C108.503075,39.427276 107.948612,39.2622978 107.332541,39.2622978 C106.547447,39.2622978 105.904522,39.5011234 105.403768,39.9787745 C104.901434,40.4564257 104.651846,41.0676307 104.651846,41.8076757 C104.651846,42.4298792 104.842986,42.9672368 105.228425,43.4228909 C105.613863,43.8769737 106.209398,44.2792063 107.019767,44.6311598 L109.531438,45.7294432 Z" id="Fill-28" fill="#FEFEFE" mask="url(#mask-2)"></path>
                        <path d="M40.5922341,67.5730284 L47.8539642,67.5730284 L47.8539642,68.1590938 C47.8539642,70.9150153 47.0672899,73.0911564 45.4971008,74.6859456 C43.9269116,76.2807349 41.7833032,77.0773439 39.0646959,77.0773439 C38.2401096,77.0773439 37.4534354,76.9893556 36.7046731,76.81495 C35.9543312,76.6389733 35.2640166,76.3844355 34.6321498,76.0481942 C33.1883339,75.2594413 32.0730889,74.1690139 31.2879943,72.7784834 C30.5028997,71.3879528 30.1111422,69.8073046 30.1111422,68.0381098 C30.1111422,66.5800167 30.3465127,65.2617623 30.8156738,64.0864891 C31.2816756,62.9096446 31.9909462,61.8773524 32.9355872,60.9833277 C33.7285801,60.2354265 34.6495261,59.6682157 35.7000048,59.286409 C36.7504835,58.9030311 37.9131185,58.7113422 39.1863303,58.7113422 C40.8765742,58.7113422 42.3425054,59.0177302 43.5872831,59.6257928 C44.8289015,60.2369977 45.8572649,61.156162 46.6755325,62.3832855 L44.9205222,63.780101 C44.2870757,62.721098 43.4988217,61.9260602 42.5526011,61.3949876 C41.6063804,60.8670573 40.5085117,60.601521 39.258995,60.601521 C37.2149056,60.601521 35.5562551,61.2881445 34.2830433,62.6582492 C33.0066722,64.0283539 32.371646,65.8226882 32.371646,68.0381098 C32.371646,70.1262624 33.0177299,71.8404645 34.3114773,73.1791447 C35.6068044,74.517825 37.255977,75.1887363 39.258995,75.1887363 C41.0203239,75.1887363 42.4894144,74.6560924 43.6631071,73.5923758 C44.8383795,72.527088 45.4907821,71.1428424 45.6187351,69.4380676 L40.5922341,69.4380676 L40.5922341,67.5730284 Z" id="Fill-29" fill="#FEFEFE" mask="url(#mask-2)"></path>
                        <path d="M52.9983084,60.8647005 L52.9983084,66.7237834 L54.5969316,66.7237834 C56.2318872,66.7237834 57.3250169,66.5132398 57.8794801,66.095295 C58.4307839,65.6757791 58.7072257,64.9451613 58.7072257,63.9018706 C58.7072257,62.7784476 58.4244652,61.9896947 57.8542054,61.5387543 C57.2855252,61.0893851 56.1987142,60.8647005 54.5969316,60.8647005 L52.9983084,60.8647005 Z M50.9557987,76.6099057 L50.9557987,59.1065042 L55.0897878,59.1065042 C56.2682195,59.1065042 57.1307178,59.1740667 57.680442,59.3044781 C58.2301662,59.4348894 58.7119647,59.6611452 59.1289968,59.9801031 C59.650287,60.3854781 60.0546818,60.9306918 60.3421812,61.6126017 C60.6312603,62.2929403 60.7765897,63.0486976 60.7765897,63.8783023 C60.7765897,65.3112558 60.3721949,66.4016831 59.5681443,67.1480131 C58.7609344,67.8927718 57.580923,68.26358 56.0281101,68.26358 L55.6553086,68.26358 L62.3752129,76.6099057 L59.7182127,76.6099057 L53.2984452,68.26358 L52.9983084,68.26358 L52.9983084,76.6099057 L50.9557987,76.6099057 Z" id="Fill-30" fill="#FEFEFE" mask="url(#mask-2)"></path>
                        <path d="M72.7286677,75.1161459 C73.690685,75.1161459 74.606892,74.9354555 75.4772886,74.5725035 C76.3476852,74.2095514 77.1327798,73.68005 77.829413,72.9887128 C78.5197276,72.3020892 79.0457568,71.525906 79.4075006,70.6570209 C79.7676647,69.7881357 79.9477468,68.8674002 79.9477468,67.8948144 C79.9477468,66.9143725 79.7645054,65.9826385 79.4011819,65.0980411 C79.0346991,64.2134437 78.5118293,63.4309757 77.829413,62.7522082 C77.1406781,62.0687271 76.3603225,61.5455105 75.4899259,61.1872721 C74.6195293,60.8274625 73.6985833,60.6483434 72.7286677,60.6483434 C71.7508537,60.6483434 70.823589,60.8274625 69.9500331,61.1872721 C69.0748974,61.5455105 68.3024402,62.0687271 67.6279223,62.7522082 C66.9391874,63.4466879 66.4131582,64.2322984 66.0514144,65.1090397 C65.6912503,65.9857809 65.5111682,66.9143725 65.5111682,67.8948144 C65.5111682,68.8674002 65.6896706,69.783422 66.0466754,70.6444511 C66.4036802,71.5070514 66.931289,72.286377 67.6279223,72.9887128 C68.3340335,73.6894773 69.1175484,74.22055 69.9816264,74.5772171 C70.842545,74.9370267 71.758752,75.1161459 72.7286677,75.1161459 M82.1355858,67.8948144 C82.1355858,69.1455063 81.9033747,70.3254932 81.4389526,71.433204 C80.9729508,72.5409148 80.2952735,73.5260703 79.4059209,74.3870994 C78.5149886,75.2481285 77.4913643,75.9111837 76.3303089,76.3778364 C75.1724128,76.844489 73.9718657,77.0786009 72.7286677,77.0786009 C71.4870492,77.0786009 70.2896615,76.844489 69.1396638,76.3778364 C67.9880864,75.9111837 66.969201,75.2481285 66.0782687,74.3870994 C65.1794381,73.5182142 64.4970219,72.5299162 64.0262811,71.4206342 C63.5571199,70.3129235 63.3233292,69.1392214 63.3233292,67.8948144 C63.3233292,66.6441225 63.5571199,65.4609931 64.0262811,64.3485687 C64.4970219,63.2377155 65.1794381,62.2478463 66.0782687,61.3773899 C66.959723,60.5257881 67.9786084,59.8690178 69.1333451,59.4055076 C70.2880818,58.9435686 71.4870492,58.7125991 72.7286677,58.7125991 C73.9813437,58.7125991 75.1850501,58.9435686 76.3445259,59.4055076 C77.5024219,59.8690178 78.5228869,60.5257881 79.4059209,61.3773899 C80.2952735,62.2399902 80.9729508,63.2251457 81.4389526,64.3391414 C81.9033747,65.4499946 82.1355858,66.6346952 82.1355858,67.8948144" id="Fill-31" fill="#FEFEFE" mask="url(#mask-2)"></path>
                        <path d="M85.4770558,59.1063471 L87.5938099,59.1063471 L87.5938099,69.999622 C87.5938099,71.7688168 87.9713504,73.0682165 88.7295906,73.8978212 C89.4862512,74.7258546 90.6741609,75.140657 92.2917401,75.140657 C93.9124787,75.140657 95.1003884,74.7258546 95.857049,73.8978212 C96.6152893,73.0682165 96.9928297,71.7688168 96.9928297,69.999622 L96.9928297,59.1063471 L99.1206414,59.1063471 L99.1206414,69.999622 C99.1206414,72.3658808 98.5535409,74.1366468 97.4209195,75.3134913 C96.2867185,76.4887646 94.5775186,77.0779724 92.2917401,77.0779724 C90.0170194,77.0779724 88.3125585,76.4887646 87.1783574,75.3134913 C86.0441564,74.1366468 85.4770558,72.3658808 85.4770558,69.999622 L85.4770558,59.1063471 Z" id="Fill-32" fill="#FEFEFE" mask="url(#mask-2)"></path>
                        <path d="M105.323205,66.8672359 L106.381582,66.8672359 C108.176084,66.8672359 109.384529,66.6582635 110.005338,66.2387475 C110.626147,65.8208027 110.937342,65.0886138 110.937342,64.0453231 C110.937342,62.928185 110.618249,62.1441457 109.981643,61.6900629 C109.345037,61.2344088 108.142911,61.008153 106.381582,61.008153 L105.323205,61.008153 L105.323205,66.8672359 Z M105.323205,68.7542723 L105.323205,76.6103771 L103.280695,76.6103771 L103.280695,59.1069756 L106.970798,59.1069756 C108.259806,59.1069756 109.210766,59.1745381 109.818938,59.3096631 C110.427109,59.4463593 110.956298,59.6679015 111.406503,59.9805744 C111.967285,60.3780934 112.404853,60.923307 112.722366,61.6177867 C113.038299,62.3106951 113.196266,63.0805934 113.196266,63.9259103 C113.196266,64.7696559 113.038299,65.5395542 112.722366,66.2340339 C112.404853,66.9269423 111.967285,67.472156 111.406503,67.8696749 C110.956298,68.190204 110.428689,68.4164598 109.825256,68.553156 C109.220244,68.688281 108.267704,68.7542723 106.970798,68.7542723 L106.381582,68.7542723 L105.323205,68.7542723 Z" id="Fill-33" fill="#FEFEFE" mask="url(#mask-2)"></path>
                    </g>
                </g>
            </g>
        </g>
    </g>
</svg>