<?xml version="1.0" encoding="UTF-8" standalone="no"?>
<svg
   xmlns:dc="http://purl.org/dc/elements/1.1/"
   xmlns:cc="http://creativecommons.org/ns#"
   xmlns:rdf="http://www.w3.org/1999/02/22-rdf-syntax-ns#"
   xmlns:svg="http://www.w3.org/2000/svg"
   xmlns="http://www.w3.org/2000/svg"
   viewBox="0 0 296.22534 175.76534"
   height="175.76534"
   width="296.22534"
   xml:space="preserve"
   id="svg2"
   version="1.1"><metadata
     id="metadata8"><rdf:RDF><cc:Work
         rdf:about=""><dc:format>image/svg+xml</dc:format><dc:type
           rdf:resource="http://purl.org/dc/dcmitype/StillImage" /></cc:Work></rdf:RDF></metadata><defs
     id="defs6"><clipPath
       id="clipPath18"
       clipPathUnits="userSpaceOnUse"><path
         id="path16"
         d="M 0,131.824 H 222.169 V 0 H 0 Z" /></clipPath><clipPath
       id="clipPath72"
       clipPathUnits="userSpaceOnUse"><path
         id="path70"
         d="m 155.819,6.722 h 60.055 v 118.38 h -60.055 z" /></clipPath><clipPath
       id="clipPath80"
       clipPathUnits="userSpaceOnUse"><path
         id="path78"
         d="m 136.026,120.339 h 39.585 V 80.7511 h -39.585 z" /></clipPath><clipPath
       id="clipPath84"
       clipPathUnits="userSpaceOnUse"><path
         id="path82"
         d="m 136.026,80.751 h 39.585 v 39.586 h -39.585 z" /></clipPath><clipPath
       id="clipPath104"
       clipPathUnits="userSpaceOnUse"><path
         id="path102"
         d="m 136.539,51.4463 h 38.558 V 12.8861 h -38.558 z" /></clipPath><clipPath
       id="clipPath108"
       clipPathUnits="userSpaceOnUse"><path
         id="path106"
         d="m 136.539,12.886 h 38.559 v 38.56 h -38.559 z" /></clipPath><clipPath
       id="clipPath128"
       clipPathUnits="userSpaceOnUse"><path
         id="path126"
         d="m 164.587,96.2555 h 23.274 V 72.9802 h -23.274 z" /></clipPath><clipPath
       id="clipPath132"
       clipPathUnits="userSpaceOnUse"><path
         id="path130"
         d="m 164.587,72.98 h 23.274 v 23.275 h -23.274 z" /></clipPath><clipPath
       id="clipPath150"
       clipPathUnits="userSpaceOnUse"><path
         id="path148"
         d="M 124.281,96.2555 H 147.56 V 72.9802 h -23.279 z" /></clipPath><clipPath
       id="clipPath154"
       clipPathUnits="userSpaceOnUse"><path
         id="path152"
         d="M 124.281,72.98 H 147.56 V 96.255 H 124.281 Z" /></clipPath><clipPath
       id="clipPath172"
       clipPathUnits="userSpaceOnUse"><path
         id="path170"
         d="m 101.296,87.05 h 39.801 v -39.8 h -39.801 z" /></clipPath><clipPath
       id="clipPath176"
       clipPathUnits="userSpaceOnUse"><path
         id="path174"
         d="m 101.296,47.25 h 39.801 v 39.799 h -39.801 z" /></clipPath><clipPath
       id="clipPath196"
       clipPathUnits="userSpaceOnUse"><path
         id="path194"
         d="M 170.227,85.9464 H 210.65 V 45.5225 h -40.423 z" /></clipPath><clipPath
       id="clipPath200"
       clipPathUnits="userSpaceOnUse"><path
         id="path198"
         d="M 170.227,45.523 H 210.65 V 85.946 H 170.227 Z" /></clipPath><clipPath
       id="clipPath220"
       clipPathUnits="userSpaceOnUse"><path
         id="path218"
         d="M 124.281,58.7425 H 147.56 V 35.4671 h -23.279 z" /></clipPath><clipPath
       id="clipPath224"
       clipPathUnits="userSpaceOnUse"><path
         id="path222"
         d="M 124.281,35.467 H 147.56 V 58.742 H 124.281 Z" /></clipPath><clipPath
       id="clipPath242"
       clipPathUnits="userSpaceOnUse"><path
         id="path240"
         d="m 164.587,58.7425 h 23.274 V 35.4671 h -23.274 z" /></clipPath><clipPath
       id="clipPath246"
       clipPathUnits="userSpaceOnUse"><path
         id="path244"
         d="m 164.587,35.467 h 23.274 v 23.275 h -23.274 z" /></clipPath><clipPath
       id="clipPath264"
       clipPathUnits="userSpaceOnUse"><path
         id="path262"
         d="M 0,131.824 H 222.169 V 0 H 0 Z" /></clipPath></defs><g
     transform="matrix(1.3333333,0,0,-1.3333333,0,175.76533)"
     id="g10"><g
       id="g12"><g
         clip-path="url(#clipPath18)"
         id="g14"><g
           transform="translate(9.3106,30.7034)"
           id="g20"><path
             id="path22"
             style="fill:#fdb739;fill-opacity:1;fill-rule:nonzero;stroke:none"
             d="M 0,0 H 6.076 V -2.284 H 1.843 L 1.314,-4.639 c 0.147,0.041 0.291,0.072 0.432,0.093 0.141,0.021 0.276,0.031 0.405,0.031 1.176,0 2.154,-0.402 2.933,-1.204 0.779,-0.802 1.168,-1.83 1.168,-3.082 0,-1.264 -0.431,-2.329 -1.292,-3.197 -0.861,-0.867 -1.909,-1.3 -3.144,-1.3 -1.105,0 -2.054,0.314 -2.848,0.943 -0.794,0.629 -1.314,1.49 -1.561,2.584 H 0 c 0.2,-0.406 0.463,-0.713 0.789,-0.921 0.326,-0.209 0.687,-0.314 1.08,-0.314 0.547,0 1.011,0.197 1.394,0.591 0.382,0.394 0.573,0.9 0.573,1.517 0,0.6 -0.178,1.092 -0.534,1.477 -0.355,0.385 -0.786,0.578 -1.292,0.578 -0.27,0 -0.536,-0.068 -0.798,-0.203 C 0.951,-7.181 0.693,-7.384 0.441,-7.655 l -2.011,0.45 z" /></g><g
           transform="translate(29.5416,28.5867)"
           id="g24"><path
             id="path26"
             style="fill:#fdb739;fill-opacity:1;fill-rule:nonzero;stroke:none"
             d="m 0,0 -1.739,-1.719 c -1.1,1.164 -2.383,1.746 -3.848,1.746 -1.277,0 -2.346,-0.423 -3.208,-1.27 -0.862,-0.847 -1.293,-1.876 -1.293,-3.087 0,-1.252 0.447,-2.313 1.341,-3.183 0.895,-0.87 1.998,-1.305 3.311,-1.305 0.853,0 1.573,0.179 2.159,0.538 0.585,0.358 1.057,0.92 1.416,1.684 h -3.756 v 2.319 h 6.525 l 0.018,-0.547 c 0,-1.134 -0.294,-2.21 -0.882,-3.227 -0.588,-1.017 -1.349,-1.793 -2.284,-2.328 -0.935,-0.535 -2.031,-0.803 -3.289,-0.803 -1.346,0 -2.547,0.293 -3.602,0.878 -1.056,0.585 -1.89,1.418 -2.505,2.5 -0.614,1.081 -0.922,2.248 -0.922,3.501 0,1.716 0.568,3.21 1.703,4.48 1.346,1.51 3.098,2.266 5.255,2.266 1.129,0 2.184,-0.209 3.166,-0.626 C -1.605,1.464 -0.793,0.858 0,0" /></g><g
           transform="translate(43.9449,28.9398)"
           id="g28"><path
             id="path30"
             style="fill:#fdb739;fill-opacity:1;fill-rule:nonzero;stroke:none"
             d="m 0,0 -1.829,-1.614 c -0.642,0.894 -1.296,1.341 -1.961,1.341 -0.324,0 -0.589,-0.087 -0.795,-0.261 -0.207,-0.173 -0.31,-0.369 -0.31,-0.586 0,-0.217 0.074,-0.423 0.222,-0.617 0.2,-0.259 0.803,-0.815 1.81,-1.667 0.943,-0.788 1.514,-1.284 1.714,-1.491 0.501,-0.505 0.856,-0.989 1.065,-1.45 0.209,-0.462 0.313,-0.966 0.313,-1.512 0,-1.064 -0.368,-1.944 -1.104,-2.637 -0.735,-0.694 -1.694,-1.041 -2.877,-1.041 -0.924,0 -1.729,0.226 -2.415,0.679 -0.686,0.453 -1.272,1.164 -1.761,2.134 l 2.075,1.253 c 0.625,-1.147 1.343,-1.72 2.156,-1.72 0.424,0 0.78,0.124 1.068,0.37 0.289,0.247 0.433,0.532 0.433,0.856 0,0.294 -0.109,0.588 -0.327,0.881 -0.218,0.294 -0.698,0.744 -1.44,1.35 -1.413,1.152 -2.326,2.042 -2.738,2.668 -0.412,0.626 -0.618,1.25 -0.618,1.874 0,0.899 0.342,1.67 1.028,2.315 0.686,0.643 1.532,0.965 2.539,0.965 0.647,0 1.264,-0.15 1.849,-0.45 C -1.317,1.34 -0.683,0.793 0,0" /></g><g
           transform="translate(46.1153,30.7034)"
           id="g32"><path
             id="path34"
             style="fill:#fdb739;fill-opacity:1;fill-rule:nonzero;stroke:none"
             d="m 0,0 h 2.478 v -8.389 c 0,-0.722 0.063,-1.233 0.189,-1.533 0.127,-0.299 0.335,-0.539 0.626,-0.718 0.291,-0.179 0.643,-0.269 1.054,-0.269 0.435,0 0.81,0.1 1.125,0.3 0.314,0.2 0.532,0.454 0.653,0.762 0.12,0.308 0.18,0.897 0.18,1.767 V 0 h 2.478 v -7.734 c 0,-1.305 -0.074,-2.21 -0.22,-2.716 -0.147,-0.506 -0.428,-0.994 -0.843,-1.464 -0.414,-0.47 -0.892,-0.819 -1.432,-1.045 -0.541,-0.226 -1.17,-0.339 -1.888,-0.339 -0.941,0 -1.759,0.215 -2.456,0.648 -0.696,0.432 -1.194,0.973 -1.494,1.622 C 0.15,-10.378 0,-9.28 0,-7.734 Z" /></g><g
           transform="translate(58.6978,30.7034)"
           id="g36"><path
             id="path38"
             style="fill:#fdb739;fill-opacity:1;fill-rule:nonzero;stroke:none"
             d="M 0,0 H 2.406 L 5.413,-9.048 8.447,0 h 2.405 l 2.176,-12.972 H 10.64 L 9.249,-4.78 6.493,-12.972 H 4.317 L 1.586,-4.78 0.162,-12.972 h -2.408 z" /></g><g
           transform="translate(74.6251,30.7034)"
           id="g40"><path
             id="path42"
             style="fill:#fdb739;fill-opacity:1;fill-rule:nonzero;stroke:none"
             d="M 0,0 H 2.406 L 5.413,-9.048 8.447,0 h 2.405 l 2.176,-12.972 H 10.64 L 9.249,-4.78 6.493,-12.972 H 4.317 L 1.586,-4.78 0.162,-12.972 h -2.408 z" /></g><path
           id="path44"
           style="fill:#fdb739;fill-opacity:1;fill-rule:nonzero;stroke:none"
           d="M 89.118,30.703 H 91.57 V 17.731 h -2.452 z" /><g
           transform="translate(92.7437,30.7034)"
           id="g46"><path
             id="path48"
             style="fill:#fdb739;fill-opacity:1;fill-rule:nonzero;stroke:none"
             d="M 0,0 H 7.17 V -2.434 H 4.806 V -12.972 H 2.302 v 10.538 l -2.302,0 z" /></g><g
           transform="translate(107.6764,26.5233)"
           id="g50"><path
             id="path52"
             style="fill:#fdb739;fill-opacity:1;fill-rule:nonzero;stroke:none"
             d="m 0,0 h -2.408 c 0.065,1.399 0.504,2.5 1.319,3.303 0.814,0.802 1.859,1.203 3.135,1.203 0.787,0 1.483,-0.166 2.085,-0.498 C 4.734,3.676 5.216,3.197 5.578,2.571 5.939,1.945 6.12,1.308 6.12,0.662 6.12,-0.109 5.901,-0.937 5.462,-1.825 5.024,-2.713 4.223,-3.763 3.058,-4.974 L 1.603,-6.508 H 6.226 V -8.792 H -2.76 v 1.182 l 4.012,4.091 c 0.97,0.982 1.615,1.771 1.936,2.368 0.32,0.597 0.48,1.136 0.48,1.618 0,0.5 -0.166,0.913 -0.498,1.24 C 2.838,2.033 2.41,2.196 1.887,2.196 1.358,2.196 0.917,1.999 0.564,1.605 0.211,1.211 0.023,0.676 0,0" /></g><g
           transform="translate(119.3927,28.6839)"
           id="g54"><path
             id="path56"
             style="fill:#fdb739;fill-opacity:1;fill-rule:nonzero;stroke:none"
             d="m 0,0 c -0.417,0 -0.786,-0.134 -1.109,-0.401 -0.323,-0.268 -0.569,-0.728 -0.739,-1.38 -0.171,-0.653 -0.256,-1.608 -0.256,-2.866 0,-1.641 0.196,-2.774 0.586,-3.4 0.39,-0.626 0.896,-0.939 1.518,-0.939 0.598,0 1.073,0.297 1.425,0.891 0.429,0.717 0.643,1.916 0.643,3.597 0,1.706 -0.193,2.881 -0.576,3.528 C 1.107,-0.323 0.61,0 0,0 m -0.058,2.346 c 0.947,0 1.763,-0.233 2.448,-0.697 0.685,-0.464 1.214,-1.174 1.587,-2.129 0.374,-0.956 0.56,-2.286 0.56,-3.991 0,-1.723 -0.189,-3.063 -0.569,-4.021 -0.379,-0.959 -0.889,-1.663 -1.53,-2.112 -0.641,-0.45 -1.449,-0.675 -2.425,-0.675 -0.976,0 -1.796,0.226 -2.46,0.679 -0.665,0.453 -1.185,1.141 -1.561,2.064 -0.376,0.923 -0.565,2.237 -0.565,3.942 0,2.381 0.368,4.106 1.103,5.176 0.817,1.176 1.954,1.764 3.412,1.764" /></g><g
           transform="translate(127.256,26.5233)"
           id="g58"><path
             id="path60"
             style="fill:#fdb739;fill-opacity:1;fill-rule:nonzero;stroke:none"
             d="m 0,0 h -2.408 c 0.065,1.399 0.504,2.5 1.319,3.303 0.814,0.802 1.859,1.203 3.135,1.203 0.787,0 1.483,-0.166 2.085,-0.498 C 4.734,3.676 5.216,3.197 5.578,2.571 5.939,1.945 6.12,1.308 6.12,0.662 6.12,-0.109 5.901,-0.937 5.462,-1.825 5.024,-2.713 4.223,-3.763 3.058,-4.974 L 1.603,-6.508 H 6.226 V -8.792 H -2.76 v 1.182 l 4.012,4.091 c 0.97,0.982 1.615,1.771 1.935,2.368 0.321,0.597 0.481,1.136 0.481,1.618 0,0.5 -0.166,0.913 -0.498,1.24 C 2.838,2.033 2.41,2.196 1.887,2.196 1.358,2.196 0.917,1.999 0.564,1.605 0.211,1.211 0.023,0.676 0,0" /></g><g
           transform="translate(137.3282,27.5023)"
           id="g62"><path
             id="path64"
             style="fill:#fdb739;fill-opacity:1;fill-rule:nonzero;stroke:none"
             d="m 0,0 h -2.373 c 0.124,0.958 0.468,1.729 1.032,2.311 0.788,0.811 1.778,1.216 2.972,1.216 1.064,0 1.956,-0.338 2.677,-1.014 0.72,-0.676 1.08,-1.478 1.08,-2.407 0,-0.576 -0.158,-1.103 -0.472,-1.579 -0.314,-0.476 -0.771,-0.861 -1.371,-1.155 0.788,-0.235 1.403,-0.645 1.847,-1.23 0.444,-0.585 0.666,-1.274 0.666,-2.068 0,-1.164 -0.429,-2.151 -1.287,-2.959 -0.859,-0.808 -1.952,-1.212 -3.281,-1.212 -1.258,0 -2.284,0.38 -3.077,1.142 -0.794,0.761 -1.229,1.797 -1.306,3.108 h 2.443 c 0.106,-0.67 0.34,-1.168 0.701,-1.494 0.362,-0.327 0.819,-0.49 1.372,-0.49 0.575,0 1.053,0.185 1.432,0.556 0.38,0.37 0.569,0.823 0.569,1.358 0,0.587 -0.255,1.084 -0.767,1.49 -0.511,0.406 -1.25,0.614 -2.213,0.626 v 2.116 c 0.593,0.048 1.036,0.14 1.327,0.278 0.291,0.138 0.517,0.328 0.679,0.569 0.162,0.241 0.242,0.497 0.242,0.767 0,0.353 -0.123,0.646 -0.37,0.878 C 2.275,1.039 1.952,1.155 1.552,1.155 1.199,1.155 0.878,1.048 0.591,0.833 0.302,0.619 0.105,0.341 0,0" /></g></g></g><g
       id="g66"><g
         clip-path="url(#clipPath72)"
         id="g68"><g
           id="g74"><g
             id="g76" /><g
             id="g96"><g
               id="g94"
               clip-path="url(#clipPath80)"><g
                 id="g92"><g
                   id="g90"
                   clip-path="url(#clipPath84)"><g
                     id="g88"
                     transform="translate(175.6109,100.5447)"><path
                       id="path86"
                       style="fill:#a867a8;fill-opacity:1;fill-rule:nonzero;stroke:none"
                       d="M 0,0 -19.792,-19.793 -39.585,0 -19.792,19.794 Z" /></g></g></g></g></g></g><g
           id="g98"><g
             id="g100" /><g
             id="g120"><g
               id="g118"
               clip-path="url(#clipPath104)"><g
                 id="g116"><g
                   id="g114"
                   clip-path="url(#clipPath108)"><g
                     id="g112"
                     transform="translate(175.0972,32.1658)"><path
                       id="path110"
                       style="fill:#5490ca;fill-opacity:1;fill-rule:nonzero;stroke:none"
                       d="M 0,0 -19.279,-19.28 -38.559,0 l 19.28,19.28 z" /></g></g></g></g></g></g><g
           id="g122"><g
             id="g124" /><g
             id="g142"><g
               id="g140"
               clip-path="url(#clipPath128)"><g
                 id="g138"><g
                   id="g136"
                   clip-path="url(#clipPath132)"><path
                     id="path134"
                     style="fill:#82d0da;fill-opacity:1;fill-rule:nonzero;stroke:none"
                     d="m 187.861,72.98 h -23.274 v 23.275 h 23.274 z" /></g></g></g></g></g><g
           id="g144"><g
             id="g146" /><g
             id="g164"><g
               id="g162"
               clip-path="url(#clipPath150)"><g
                 id="g160"><g
                   id="g158"
                   clip-path="url(#clipPath154)"><path
                     id="path156"
                     style="fill:#a1d9d6;fill-opacity:1;fill-rule:nonzero;stroke:none"
                     d="M 147.56,72.98 H 124.281 V 96.255 H 147.56 Z" /></g></g></g></g></g><g
           id="g166"><g
             id="g168" /><g
             id="g188"><g
               id="g186"
               clip-path="url(#clipPath172)"><g
                 id="g184"><g
                   id="g182"
                   clip-path="url(#clipPath176)"><g
                     id="g180"
                     transform="translate(141.0968,67.1492)"><path
                       id="path178"
                       style="fill:#f8a38f;fill-opacity:1;fill-rule:nonzero;stroke:none"
                       d="M 0,0 -19.903,-19.899 -39.801,0 -19.903,19.901 Z" /></g></g></g></g></g></g><g
           id="g190"><g
             id="g192" /><g
             id="g212"><g
               id="g210"
               clip-path="url(#clipPath196)"><g
                 id="g208"><g
                   id="g206"
                   clip-path="url(#clipPath200)"><g
                     id="g204"
                     transform="translate(210.6505,65.7352)"><path
                       id="path202"
                       style="fill:#f37c76;fill-opacity:1;fill-rule:nonzero;stroke:none"
                       d="M 0,0 -20.213,-20.212 -40.423,0 l 20.21,20.211 z" /></g></g></g></g></g></g><g
           id="g214"><g
             id="g216" /><g
             id="g234"><g
               id="g232"
               clip-path="url(#clipPath220)"><g
                 id="g230"><g
                   id="g228"
                   clip-path="url(#clipPath224)"><path
                     id="path226"
                     style="fill:#ffdf72;fill-opacity:1;fill-rule:nonzero;stroke:none"
                     d="M 147.56,35.467 H 124.281 V 58.742 H 147.56 Z" /></g></g></g></g></g><g
           id="g236"><g
             id="g238" /><g
             id="g256"><g
               id="g254"
               clip-path="url(#clipPath242)"><g
                 id="g252"><g
                   id="g250"
                   clip-path="url(#clipPath246)"><path
                     id="path248"
                     style="fill:#fdb739;fill-opacity:1;fill-rule:nonzero;stroke:none"
                     d="m 187.861,35.467 h -23.274 v 23.275 h 23.274 z" /></g></g></g></g></g></g></g><g
       id="g258"><g
         clip-path="url(#clipPath264)"
         id="g260"><g
           transform="translate(83.6095,108.4676)"
           id="g266"><path
             id="path268"
             style="fill:#5490ca;fill-opacity:1;fill-rule:nonzero;stroke:none"
             d="M 0,0 -3.405,-7.874 H 3.406 Z M 0,5.626 9.729,-16.611 H 6.968 l -2.778,6.56 h -8.354 l -2.777,-6.56 h -2.761 z" /></g><g
           transform="translate(98.0274,111.098)"
           id="g270"><path
             id="path272"
             style="fill:#5490ca;fill-opacity:1;fill-rule:nonzero;stroke:none"
             d="m 0,0 v -7.159 h 1.944 c 1.987,0 3.317,0.256 3.988,0.767 0.674,0.513 1.01,1.404 1.01,2.682 0,1.373 -0.347,2.334 -1.039,2.885 C 5.211,-0.276 3.89,0 1.944,0 Z M -2.483,-19.24 V 2.147 h 5.028 c 1.429,0 2.48,-0.079 3.145,-0.24 C 6.358,1.746 6.945,1.471 7.453,1.081 8.086,0.585 8.576,-0.079 8.927,-0.911 9.279,-1.745 9.455,-2.668 9.455,-3.681 9.455,-5.435 8.964,-6.767 7.987,-7.677 7.006,-8.589 5.57,-9.043 3.683,-9.043 H 3.23 L 11.397,-19.24 H 8.17 L 0.368,-9.043 H 0 V -19.24 Z" /></g><g
           transform="translate(118.3224,108.4676)"
           id="g274"><path
             id="path276"
             style="fill:#5490ca;fill-opacity:1;fill-rule:nonzero;stroke:none"
             d="M 0,0 -3.406,-7.874 H 3.405 Z M 0,5.626 9.734,-16.611 H 6.968 l -2.775,6.56 h -8.357 l -2.775,-6.56 h -2.764 z" /></g><g
           transform="translate(132.7457,101.8792)"
           id="g278"><path
             id="path280"
             style="fill:#5490ca;fill-opacity:1;fill-rule:nonzero;stroke:none"
             d="m 0,0 v -7.803 h 1.973 c 1.354,0 2.328,0.055 2.926,0.162 0.601,0.106 1.08,0.292 1.439,0.556 0.44,0.311 0.785,0.744 1.039,1.299 0.254,0.555 0.379,1.17 0.379,1.842 0,0.778 -0.149,1.456 -0.452,2.029 C 7.003,-1.339 6.562,-0.89 5.988,-0.569 5.646,-0.366 5.252,-0.219 4.806,-0.132 4.356,-0.044 3.663,0 2.717,0 H 1.973 Z M 0,9.159 V 2.002 H 1.973 C 3.785,2.002 5.06,2.265 5.801,2.79 6.537,3.315 6.91,4.203 6.91,5.449 6.91,6.822 6.565,7.785 5.88,8.334 5.194,8.884 3.89,9.159 1.973,9.159 Z m -2.483,-19.181 v 21.388 h 4.456 c 1.567,0 2.722,-0.078 3.469,-0.241 C 6.187,10.965 6.825,10.69 7.362,10.3 8.042,9.793 8.573,9.143 8.947,8.349 9.323,7.556 9.51,6.687 9.51,5.743 9.51,4.612 9.241,3.667 8.699,2.907 8.159,2.147 7.371,1.617 6.338,1.314 7.607,1.12 8.605,0.554 9.344,-0.387 c 0.732,-0.941 1.103,-2.126 1.103,-3.557 0,-0.857 -0.158,-1.677 -0.47,-2.454 C 9.664,-7.178 9.233,-7.845 8.678,-8.4 8.074,-8.996 7.327,-9.413 6.44,-9.657 5.556,-9.902 4.065,-10.022 1.973,-10.022 Z" /></g><g
           transform="translate(16.0499,82.6126)"
           id="g282"><path
             id="path284"
             style="fill:#5490ca;fill-opacity:1;fill-rule:nonzero;stroke:none"
             d="m 0,0 -3.406,-7.875 h 6.811 z m 0,5.625 9.731,-22.237 h -2.76 l -2.778,6.561 h -8.355 l -2.777,-6.561 H -9.7 Z" /></g><g
           transform="translate(30.5582,68.3963)"
           id="g286"><path
             id="path288"
             style="fill:#5490ca;fill-opacity:1;fill-rule:nonzero;stroke:none"
             d="m 0,0 h 1.622 c 2.629,0 4.45,0.116 5.462,0.345 1.013,0.23 1.856,0.62 2.528,1.175 0.878,0.73 1.546,1.673 2.004,2.827 0.458,1.154 0.686,2.476 0.686,3.967 0,1.5 -0.228,2.817 -0.68,3.953 -0.453,1.134 -1.123,2.072 -2.01,2.813 -0.672,0.563 -1.527,0.965 -2.563,1.204 -1.038,0.238 -2.847,0.358 -5.427,0.358 H 0 Z m -2.574,-2.396 v 21.39 h 4.108 c 3.038,0 5.18,-0.155 6.423,-0.461 1.24,-0.306 2.329,-0.82 3.265,-1.54 1.226,-0.945 2.157,-2.154 2.79,-3.624 0.633,-1.471 0.948,-3.164 0.948,-5.085 0,-1.909 -0.312,-3.595 -0.943,-5.061 C 13.39,1.756 12.457,0.553 11.222,-0.395 10.286,-1.115 9.22,-1.629 8.03,-1.935 6.833,-2.245 4.978,-2.396 2.454,-2.396 h -0.92 z" /></g><g
           transform="translate(55.2647,65.1673)"
           id="g290"><path
             id="path292"
             style="fill:#5490ca;fill-opacity:1;fill-rule:nonzero;stroke:none"
             d="m 0,0 -9.046,22.223 h 2.763 L 0,5.861 6.253,22.223 h 2.746 z" /></g><path
           id="path294"
           style="fill:#5490ca;fill-opacity:1;fill-rule:nonzero;stroke:none"
           d="m 66.543,87.39 h 2.542 V 66 h -2.542 z" /><g
           transform="translate(82.0431,77.8797)"
           id="g296"><path
             id="path298"
             style="fill:#5490ca;fill-opacity:1;fill-rule:nonzero;stroke:none"
             d="m 0,0 c 1.395,-0.595 2.445,-1.383 3.151,-2.368 0.703,-0.982 1.059,-2.15 1.059,-3.49 0,-1.968 -0.627,-3.554 -1.879,-4.76 -1.251,-1.2 -2.909,-1.801 -4.975,-1.801 -1.687,0 -3.099,0.43 -4.237,1.291 -1.141,0.864 -1.908,2.089 -2.308,3.677 l 2.308,1.14 c 0.313,-1.297 0.826,-2.278 1.541,-2.947 0.717,-0.665 1.613,-0.999 2.696,-0.999 1.278,0 2.311,0.368 3.099,1.103 0.788,0.736 1.182,1.691 1.182,2.871 0,0.953 -0.274,1.785 -0.826,2.492 -0.551,0.705 -1.38,1.302 -2.489,1.789 l -2.603,1.109 c -1.421,0.595 -2.48,1.36 -3.177,2.295 -0.695,0.935 -1.042,2.056 -1.042,3.36 0,1.519 0.563,2.777 1.692,3.769 1.132,0.995 2.571,1.491 4.325,1.491 1.286,0 2.401,-0.274 3.34,-0.818 0.94,-0.546 1.67,-1.349 2.198,-2.41 L 0.951,5.449 c -0.476,0.827 -1.013,1.444 -1.608,1.849 -0.595,0.403 -1.266,0.605 -2.016,0.605 -0.954,0 -1.737,-0.292 -2.343,-0.877 -0.61,-0.583 -0.913,-1.328 -0.913,-2.235 0,-0.759 0.23,-1.416 0.7,-1.971 0.467,-0.557 1.193,-1.048 2.176,-1.476 z" /></g><g
           transform="translate(100.0934,67.8275)"
           id="g300"><path
             id="path302"
             style="fill:#5490ca;fill-opacity:1;fill-rule:nonzero;stroke:none"
             d="M 0,0 C 1.17,0 2.285,0.221 3.341,0.665 4.4,1.11 5.352,1.754 6.201,2.601 7.038,3.438 7.677,4.387 8.115,5.45 c 0.441,1.059 0.66,2.187 0.66,3.375 0,1.198 -0.222,2.337 -0.666,3.417 C 7.666,13.324 7.03,14.279 6.201,15.106 5.364,15.944 4.416,16.584 3.355,17.021 2.3,17.459 1.179,17.678 0,17.678 c -1.187,0 -2.314,-0.219 -3.379,-0.657 C -4.438,16.584 -5.381,15.944 -6.2,15.106 -7.038,14.26 -7.674,13.3 -8.115,12.229 -8.553,11.157 -8.771,10.023 -8.771,8.825 c 0,-1.188 0.215,-2.31 0.647,-3.362 C -7.688,4.413 -7.047,3.458 -6.2,2.601 -5.343,1.743 -4.386,1.095 -3.341,0.657 -2.293,0.22 -1.178,0 0,0 M 11.433,8.825 C 11.433,7.296 11.153,5.854 10.586,4.5 10.021,3.146 9.198,1.943 8.115,0.891 7.032,-0.161 5.787,-0.972 4.38,-1.541 2.97,-2.113 1.512,-2.397 0,-2.397 c -1.512,0 -2.964,0.284 -4.362,0.856 -1.398,0.569 -2.638,1.38 -3.724,2.432 -1.091,1.062 -1.919,2.27 -2.489,3.624 -0.571,1.354 -0.855,2.791 -0.855,4.31 0,1.529 0.284,2.973 0.855,4.332 0.57,1.359 1.398,2.568 2.489,3.63 1.074,1.041 2.312,1.846 3.715,2.411 1.404,0.565 2.859,0.847 4.371,0.847 1.521,0 2.985,-0.282 4.392,-0.847 1.409,-0.565 2.65,-1.37 3.723,-2.411 1.083,-1.052 1.906,-2.257 2.471,-3.616 0.567,-1.359 0.847,-2.807 0.847,-4.346" /></g><g
           transform="translate(118.1617,85.2435)"
           id="g304"><path
             id="path306"
             style="fill:#5490ca;fill-opacity:1;fill-rule:nonzero;stroke:none"
             d="m 0,0 v -7.159 h 1.94 c 1.988,0 3.315,0.255 3.99,0.766 0.674,0.512 1.006,1.405 1.006,2.682 0,1.373 -0.344,2.335 -1.036,2.885 C 5.209,-0.277 3.887,0 1.94,0 Z m -2.486,-19.243 v 21.39 h 5.028 c 1.43,0 2.479,-0.08 3.145,-0.241 0.668,-0.161 1.255,-0.436 1.759,-0.827 0.639,-0.495 1.13,-1.16 1.483,-1.992 0.35,-0.834 0.525,-1.756 0.525,-2.77 0,-1.753 -0.49,-3.085 -1.467,-3.995 C 7.003,-8.59 5.571,-9.043 3.682,-9.043 H 3.228 l 8.17,-10.2 H 8.17 l -7.806,10.2 H 0 v -10.2 z" /></g><g
           transform="translate(139.4776,77.8797)"
           id="g308"><path
             id="path310"
             style="fill:#5490ca;fill-opacity:1;fill-rule:nonzero;stroke:none"
             d="m 0,0 c 1.392,-0.595 2.442,-1.383 3.148,-2.368 0.709,-0.982 1.062,-2.15 1.062,-3.49 0,-1.968 -0.627,-3.554 -1.878,-4.76 -1.252,-1.2 -2.913,-1.801 -4.976,-1.801 -1.683,0 -3.096,0.43 -4.236,1.291 -1.139,0.864 -1.909,2.089 -2.309,3.677 l 2.309,1.14 c 0.312,-1.297 0.825,-2.278 1.54,-2.947 0.718,-0.665 1.616,-0.999 2.696,-0.999 1.279,0 2.309,0.368 3.1,1.103 0.787,0.736 1.181,1.691 1.181,2.871 0,0.953 -0.275,1.785 -0.826,2.492 -0.548,0.705 -1.38,1.302 -2.489,1.789 l -2.602,1.109 c -1.419,0.595 -2.481,1.36 -3.175,2.295 -0.698,0.935 -1.045,2.056 -1.045,3.36 0,1.519 0.563,2.777 1.692,3.769 1.132,0.995 2.574,1.491 4.325,1.491 1.287,0 2.398,-0.274 3.341,-0.818 C 1.794,8.658 2.527,7.855 3.055,6.794 L 0.952,5.449 c -0.476,0.827 -1.016,1.444 -1.609,1.849 -0.595,0.403 -1.266,0.605 -2.016,0.605 -0.954,0 -1.736,-0.292 -2.343,-0.877 -0.61,-0.583 -0.913,-1.328 -0.913,-2.235 0,-0.759 0.233,-1.416 0.7,-1.971 0.467,-0.557 1.193,-1.048 2.177,-1.476 z" /></g><g
           transform="translate(55.6876,51.1898)"
           id="g312"><path
             id="path314"
             style="fill:#5490ca;fill-opacity:1;fill-rule:nonzero;stroke:none"
             d="m 0,0 h 8.824 v -0.714 c 0,-3.372 -0.954,-6.031 -2.863,-7.977 -1.908,-1.949 -4.514,-2.922 -7.814,-2.922 -1.007,0 -1.961,0.108 -2.875,0.32 -0.91,0.212 -1.75,0.525 -2.517,0.936 -1.754,0.962 -3.108,2.294 -4.062,3.996 -0.954,1.698 -1.43,3.63 -1.43,5.792 0,1.782 0.283,3.393 0.852,4.828 0.569,1.437 1.43,2.7 2.58,3.79 0.962,0.917 2.083,1.609 3.358,2.076 1.279,0.466 2.69,0.703 4.237,0.703 2.057,0 3.84,-0.374 5.349,-1.12 C 5.147,8.964 6.399,7.841 7.394,6.341 L 5.261,4.633 c -0.77,1.293 -1.73,2.265 -2.88,2.915 -1.147,0.646 -2.483,0.971 -4.004,0.971 -2.482,0 -4.499,-0.839 -6.045,-2.514 -1.55,-1.674 -2.323,-3.866 -2.323,-6.574 0,-2.553 0.785,-4.645 2.358,-6.283 1.572,-1.636 3.574,-2.455 6.01,-2.455 2.145,0 3.928,0.651 5.355,1.951 1.427,1.301 2.221,2.992 2.375,5.079 l -6.107,0 z" /></g><g
           transform="translate(70.7677,59.3865)"
           id="g316"><path
             id="path318"
             style="fill:#5490ca;fill-opacity:1;fill-rule:nonzero;stroke:none"
             d="m 0,0 v -7.159 h 1.94 c 1.987,0 3.318,0.257 3.989,0.767 0.672,0.512 1.007,1.405 1.007,2.68 0,1.373 -0.344,2.335 -1.036,2.886 C 5.208,-0.276 3.89,0 1.94,0 Z M -2.486,-19.241 V 2.148 H 2.542 C 3.971,2.148 5.022,2.066 5.69,1.907 6.355,1.745 6.942,1.471 7.45,1.082 8.083,0.585 8.573,-0.079 8.926,-0.913 9.276,-1.745 9.452,-2.668 9.452,-3.683 9.452,-5.435 8.961,-6.767 7.984,-7.677 7.003,-8.589 5.57,-9.043 3.68,-9.043 H 3.224 l 8.168,-10.198 H 8.167 L 0.365,-9.043 H 0 v -10.198 z" /></g><g
           transform="translate(94.7477,41.9705)"
           id="g320"><path
             id="path322"
             style="fill:#5490ca;fill-opacity:1;fill-rule:nonzero;stroke:none"
             d="m 0,0 c 1.17,0 2.282,0.222 3.341,0.667 1.056,0.442 2.011,1.087 2.86,1.934 0.838,0.839 1.476,1.788 1.914,2.849 0.438,1.06 0.659,2.186 0.659,3.376 0,1.197 -0.221,2.337 -0.665,3.418 -0.443,1.083 -1.079,2.037 -1.908,2.862 -0.838,0.839 -1.789,1.478 -2.845,1.916 -1.06,0.439 -2.177,0.657 -3.356,0.657 -1.191,0 -2.317,-0.218 -3.379,-0.657 -1.062,-0.438 -2.002,-1.077 -2.822,-1.916 -0.838,-0.847 -1.476,-1.804 -1.914,-2.875 -0.437,-1.072 -0.659,-2.208 -0.659,-3.405 0,-1.19 0.219,-2.309 0.65,-3.361 0.435,-1.051 1.077,-2.006 1.923,-2.864 0.858,-0.857 1.812,-1.505 2.86,-1.945 C -2.293,0.22 -1.182,0 0,0 M 11.433,8.826 C 11.433,7.297 11.15,5.854 10.584,4.501 10.021,3.146 9.195,1.944 8.115,0.892 7.033,-0.16 5.786,-0.972 4.38,-1.539 2.971,-2.11 1.511,-2.394 0,-2.394 c -1.511,0 -2.964,0.284 -4.362,0.855 -1.401,0.567 -2.641,1.379 -3.723,2.431 -1.092,1.062 -1.924,2.269 -2.493,3.624 -0.568,1.355 -0.852,2.789 -0.852,4.31 0,1.528 0.284,2.971 0.852,4.331 0.569,1.359 1.401,2.568 2.493,3.632 1.073,1.04 2.311,1.845 3.714,2.41 1.403,0.565 2.86,0.848 4.371,0.848 1.521,0 2.985,-0.283 4.392,-0.848 1.409,-0.565 2.649,-1.37 3.723,-2.41 1.08,-1.055 1.906,-2.259 2.469,-3.617 0.566,-1.359 0.849,-2.806 0.849,-4.346" /></g><g
           transform="translate(110.2423,61.5345)"
           id="g324"><path
             id="path326"
             style="fill:#5490ca;fill-opacity:1;fill-rule:nonzero;stroke:none"
             d="m 0,0 h 2.571 v -13.311 c 0,-2.161 0.461,-3.75 1.38,-4.762 0.919,-1.012 2.363,-1.52 4.333,-1.52 1.967,0 3.411,0.508 4.331,1.52 0.921,1.012 1.38,2.601 1.38,4.762 V 0 h 2.588 v -13.311 c 0,-2.893 -0.686,-5.056 -2.069,-6.492 -1.377,-1.439 -3.455,-2.158 -6.23,-2.158 -2.766,0 -4.838,0.719 -6.215,2.158 C 0.689,-18.367 0,-16.204 0,-13.311 Z" /></g><g
           transform="translate(134.3653,52.0511)"
           id="g328"><path
             id="path330"
             style="fill:#5490ca;fill-opacity:1;fill-rule:nonzero;stroke:none"
             d="M 0,0 H 1.287 C 3.47,0 4.937,0.257 5.69,0.769 6.446,1.279 6.822,2.174 6.822,3.45 6.822,4.813 6.437,5.773 5.661,6.328 4.888,6.882 3.428,7.161 1.287,7.161 H 0 Z m 0,-2.307 v -9.599 H -2.483 V 9.483 h 4.485 c 1.567,0 2.723,-0.081 3.46,-0.246 C 6.204,9.069 6.849,8.797 7.394,8.417 8.074,7.929 8.608,7.262 8.994,6.415 9.378,5.568 9.568,4.626 9.568,3.595 9.568,2.563 9.378,1.624 8.994,0.776 8.608,-0.071 8.074,-0.739 7.394,-1.226 6.849,-1.617 6.207,-1.894 5.474,-2.059 4.736,-2.225 3.577,-2.307 2.002,-2.307 H 1.287 Z" /></g></g></g></g></svg>